<?xml version="1.0" encoding="utf-8"?>
<!-- Generator: Adobe Illustrator 19.0.0, SVG Export Plug-In . SVG Version: 6.00 Build 0)  -->
<svg version="1.1" id="Слой_1" xmlns="http://www.w3.org/2000/svg" xmlns:xlink="http://www.w3.org/1999/xlink" x="0px" y="0px"
	 viewBox="0 0 17 16" style="enable-background:new 0 0 17 16;" xml:space="preserve">
<style type="text/css">
	.st0{fill:none;stroke:#8C8C8C;stroke-miterlimit:10;}
	.st1{fill:none;stroke:#8C8C8C;stroke-width:2;stroke-miterlimit:10;}
</style>
<g id="XMLID_22_">
	<line id="XMLID_4_" class="st0" x1="0" y1="15.5" x2="17" y2="15.5"/>
	<line id="XMLID_5_" class="st0" x1="0.5" y1="16" x2="0.5" y2="2"/>
	<line id="XMLID_6_" class="st0" x1="16.5" y1="16" x2="16.5" y2="2"/>
	<line id="XMLID_7_" class="st0" x1="15" y1="2.5" x2="17" y2="2.5"/>
	<line id="XMLID_8_" class="st0" x1="0" y1="2.5" x2="2" y2="2.5"/>
	<line id="XMLID_9_" class="st0" x1="13.5" y1="0" x2="13.5" y2="4"/>
	<line id="XMLID_10_" class="st0" x1="3.5" y1="0" x2="3.5" y2="4"/>
	<line id="XMLID_11_" class="st0" x1="5" y1="2.5" x2="12" y2="2.5"/>
	<line id="XMLID_12_" class="st1" x1="0" y1="6" x2="17" y2="6"/>
	<line id="XMLID_13_" class="st0" x1="5.5" y1="8" x2="5.5" y2="9"/>
	<line id="XMLID_14_" class="st0" x1="8.5" y1="8" x2="8.5" y2="9"/>
	<line id="XMLID_15_" class="st0" x1="11.5" y1="8" x2="11.5" y2="9"/>
	<line id="XMLID_16_" class="st0" x1="5.5" y1="10" x2="5.5" y2="11"/>
	<line id="XMLID_17_" class="st0" x1="8.5" y1="10" x2="8.5" y2="11"/>
	<line id="XMLID_18_" class="st0" x1="11.5" y1="10" x2="11.5" y2="11"/>
	<line id="XMLID_19_" class="st0" x1="5.5" y1="12" x2="5.5" y2="14"/>
	<line id="XMLID_20_" class="st0" x1="8.5" y1="12" x2="8.5" y2="14"/>
	<line id="XMLID_21_" class="st0" x1="11.5" y1="12" x2="11.5" y2="14"/>
</g>
</svg>
